<svg xmlns="http://www.w3.org/2000/svg" xmlns:xlink="http://www.w3.org/1999/xlink" id="Ebene_1" x="0px" y="0px" viewBox="0 0 850.4 850.4" style="enable-background:new 0 0 850.4 850.4;" xml:space="preserve"><style type="text/css">	.st0{fill:none;}	.st1{fill:#FFFFFF;}	.st2{fill:#060506;}	.st3{fill:#E22627;}</style><g>	<path class="st0" d="M440.6,328.3C440.6,328.3,440.6,328.4,440.6,328.3C440.6,328.4,440.6,328.4,440.6,328.3  C440.6,328.4,440.6,328.4,440.6,328.3c0.1,0.1,0.1,0.1,0.1,0.1c0,0,0,0,0,0c0,0,0,0,0,0h0l9.8,0h0c0.1,0,0.1,0,0.1-0.1c0,0,0,0,0,0  c0,0,0-0.1,0-0.1l-1.7-12.2c0-0.1,0-0.1-0.1-0.1c0,0,0,0-0.1,0c0,0,0,0-0.1,0c0,0,0,0,0,0h0c0,0,0,0,0,0c0,0,0,0-0.1,0  c0,0,0,0-0.1,0.1l-8.1,12.2C440.5,328.2,440.5,328.2,440.6,328.3C440.5,328.3,440.5,328.3,440.6,328.3  C440.5,328.3,440.5,328.3,440.6,328.3z"></path>	<path class="st0" d="M521.7,324.6c5,0.2,16.5,1.5,16.8-6.5c0.2-5.9-8.9-5-13.9-4.7c-0.2,0-0.4,0.1-0.4,0.4l-2.8,10.4  C521.4,324.4,521.5,324.6,521.7,324.6z"></path>	<polygon class="st1" points="516.4,449.6 534,446.9 537.2,419.1  "></polygon>	<path class="st2" d="M116.6,461.3c-9.8,1.5-17.9,5.8-21.3,11.2c-1,1.7-21.6,48.1-22.2,50c-0.8,2.8-1.3,6.7-1.3,9.6  c0,8.4,3.3,14.3,9.9,17.6c1.5,0.7,2.9,1.3,3.2,1.3c0.4,0,0.7-0.4,1-1.3c0.3-0.7,8.2-20.8,17.6-44.7c9.4-23.9,17.1-43.7,17.2-43.9  C120.9,460.8,120.1,460.8,116.6,461.3z"></path>	<path class="st3" d="M779.1,305.6C779.1,305.6,779,305.6,779.1,305.6C779,305.6,779,305.6,779.1,305.6c0-0.1,0-0.1,0-0.1  c0,0,0,0,0,0c0,0,0,0,0,0c0,0,0,0,0,0c0,0,0,0,0,0c0,0,0,0-0.1,0h-29.1c-0.1,0-0.2,0.1-0.2,0.2l-10.5,39.1c0,0,0,0,0,0.1  c0,0,0,0,0,0c0,0,0,0,0,0c0,0,0,0,0,0c0,0,0,0,0,0s0,0,0,0c0,0,0,0,0,0c0,0,0,0,0,0c0,0,0,0,0,0c0,0,0,0,0.1,0h29.3  c0.1,0,0.2-0.1,0.2-0.2l2-7.3c0,0,0,0,0-0.1c0,0,0,0,0,0c0,0,0,0,0,0c0,0,0,0,0,0c0,0,0,0,0,0c0,0,0,0,0,0c0,0,0,0,0,0c0,0,0,0,0,0  c0,0,0,0,0,0c0,0,0,0-0.1,0H750c0,0,0,0-0.1,0c0,0,0,0,0,0c0,0,0,0,0,0c0,0,0,0,0,0s0,0,0,0c0,0,0,0,0,0c0,0,0,0,0,0c0,0,0,0,0-0.1  l2.1-7.8c0-0.1,0.1-0.2,0.2-0.2h18c0.1,0,0.2-0.1,0.2-0.2l2-7.2c0,0,0,0,0-0.1c0,0,0,0,0,0c0,0,0,0,0,0c0,0,0,0,0,0c0,0,0,0,0,0  c0,0,0,0,0,0c0,0,0,0,0,0c0,0,0,0,0,0c0,0,0,0,0,0c0,0,0,0-0.1,0h-17.7c0,0-0.1,0-0.1,0c0,0,0,0,0,0c0,0,0,0,0,0c0,0,0,0,0,0  c0,0,0,0,0,0c0,0,0,0,0,0c0,0,0,0,0,0c0,0,0-0.1,0-0.1l2-7.5c0-0.1,0.1-0.2,0.2-0.2h20.5c0.1,0,0.2-0.1,0.2-0.2L779.1,305.6  C779.1,305.7,779.1,305.7,779.1,305.6C779.1,305.6,779.1,305.6,779.1,305.6z"></path>	<path class="st3" d="M387.5,344.8C387.5,344.8,387.5,344.8,387.5,344.8C387.5,344.8,387.5,344.8,387.5,344.8c0,0.1,0.1,0.1,0.1,0.1  c0,0,0,0,0,0c0,0,0,0,0,0c0,0,0,0,0,0c0,0,0,0,0.1,0h8.3c0.1,0,0.2-0.1,0.2-0.2l4-14.9c0-0.1,0.1-0.2,0.2-0.2h18.5  c0.1,0,0.2-0.1,0.2-0.2l2-7.5c0,0,0,0,0-0.1c0,0,0,0,0,0c0,0,0,0,0,0c0,0,0,0,0,0c0,0,0,0,0,0c0,0,0,0,0,0c0,0,0,0,0,0c0,0,0,0,0,0  c0,0,0,0,0,0c0,0,0,0-0.1,0h-18.2c0,0,0,0-0.1,0c0,0,0,0,0,0c0,0,0,0,0,0c0,0,0,0,0,0c0,0,0,0,0,0c0,0,0,0,0,0c0,0,0,0,0,0  c0,0,0,0,0-0.1l2.1-7.9c0-0.1,0.1-0.2,0.2-0.2h21c0.1,0,0.2-0.1,0.2-0.2l2-7.5c0,0,0,0,0-0.1c0,0,0,0,0,0c0,0,0,0,0,0c0,0,0,0,0,0  c0,0,0,0,0,0c0,0,0,0,0,0c0,0,0,0,0,0c0,0,0,0,0,0c0,0,0,0,0,0c0,0,0,0-0.1,0h-29.6c-0.1,0-0.2,0.1-0.2,0.2l-10.5,39.1  C387.5,344.7,387.5,344.7,387.5,344.8C387.5,344.7,387.5,344.7,387.5,344.8C387.5,344.7,387.5,344.7,387.5,344.8z"></path>	<path class="st3" d="M465.7,344.7C465.7,344.8,465.7,344.8,465.7,344.7C465.8,344.8,465.8,344.8,465.7,344.7  c0.1,0.1,0.1,0.1,0.1,0.1c0,0,0,0,0,0c0,0,0,0,0,0c0,0,0,0,0,0c0,0,0,0,0.1,0h8.2c0.1,0,0.2-0.1,0.2-0.2l4.2-15.5  c0-0.1,0.1-0.2,0.2-0.2l15.2,0c0,0,0.1,0,0.1,0c0,0,0,0,0,0c0,0,0,0,0,0c0,0,0,0,0,0c0,0,0,0,0,0c0,0,0,0,0,0c0,0,0,0,0,0  c0,0,0,0.1,0,0.1l-4.1,15.2c0,0,0,0,0,0.1c0,0,0,0,0,0c0,0,0,0,0,0c0,0,0,0,0,0c0,0,0,0,0,0c0,0,0,0,0,0c0,0,0,0,0,0c0,0,0,0,0,0  c0,0,0,0,0,0c0,0,0,0,0.1,0h8.2c0.1,0,0.2-0.1,0.2-0.2l10.5-39c0,0,0,0,0-0.1c0,0,0,0,0,0c0,0,0,0,0,0c0,0,0,0,0,0c0,0,0,0,0,0  s0,0,0,0c0,0,0,0,0,0c0,0,0,0,0,0c0,0,0,0,0,0c0,0,0,0-0.1,0h-8.2c-0.1,0-0.2,0.1-0.2,0.2l-4.1,15.3c0,0.1-0.1,0.2-0.2,0.2h-15.2  c0,0-0.1,0-0.1,0c0,0,0,0,0,0c0,0,0,0,0,0c0,0,0,0,0,0c0,0,0,0,0,0c0,0,0,0,0,0c0,0,0,0,0,0c0,0,0-0.1,0-0.1l4-15c0,0,0,0,0-0.1  c0,0,0,0,0,0c0,0,0,0,0,0c0,0,0,0,0,0c0,0,0,0,0,0s0,0,0,0c0,0,0,0,0,0c0,0,0,0,0,0c0,0,0,0,0,0c0,0,0,0-0.1,0h-8.2  c-0.1,0-0.2,0.1-0.2,0.2l-10.5,39C465.7,344.6,465.7,344.7,465.7,344.7C465.7,344.7,465.7,344.7,465.7,344.7  C465.7,344.7,465.7,344.7,465.7,344.7z"></path>	<path class="st1" d="M648.1,424.9l8.3-23.8c0.2-0.5-0.1-0.9-0.5-1.1c-0.1,0-0.2-0.1-0.3,0l-37,2.7l6.3-18.8l53.8-11.1  c0.4-0.1,0.7-0.3,0.8-0.7l1.7-3.6c0.2-0.4,0.1-0.7,0-0.8c-0.1-0.1-0.3-0.4-0.7-0.5l-2.1-0.4l20.4-4.4c0.6-0.1,1-0.6,1-1.2v-4.6  c0-0.4-0.2-0.7-0.3-0.8c-0.1-0.1-0.4-0.3-0.8-0.3c-33.6,1.1-67.7,2.8-101.2,5.2c-0.5,0-0.9,0.4-1.1,0.9l-2.2,7.6  c-0.1,0.5,0.1,1.1,0.6,1.3l4.8,1.9l-6.2,1.5c-0.5,0.1-0.8,0.4-0.9,0.9l-1.5,5.2c-0.1,0.3-0.1,0.7,0,1c0.6,1.8,0.5,2.6,0.3,3  c-2.6,6.4-5.2,14.1-7.8,23c-7.2,25-12,50.2-14.2,74.9c-0.6,6.8-1.3,12.4-2.2,18.8c-0.1,0.5,0.1,0.7,0.3,0.9  c0.1,0.1,0.3,0.2,0.6,0.2c0.1,0,0.2,0,0.2,0l8.5-1.8c0.4-0.1,0.8-0.4,0.9-0.9l1.7-5.6l1.3,4.7c0.2,0.6,0.6,0.9,1.2,0.7l14.9-3.1  c0.5-0.1,0.8-0.5,0.9-1c2.2-23.1,5.3-38.8,10.3-64.6l39.2-4.4C647.6,425.7,647.9,425.4,648.1,424.9z M607.6,429.5  c-0.2,0-0.3,0.1-0.4,0.3c-5.2,26.5-8.2,42-10.3,64.9c0,0.2-0.1,0.3-0.3,0.4l-14.9,3.1c-0.2,0-0.4,0-0.4-0.3l-1.7-6.2  c-0.1-0.5-0.3-0.5-0.4,0l-2.1,7.1c-0.1,0.2-0.2,0.4-0.4,0.4l-8.5,1.8c-0.2,0-0.3,0-0.3-0.3c0.9-6.3,1.6-11.8,2.2-18.8  c2.2-24.8,7-49.7,14.2-74.8c2.6-8.9,5.2-16.5,7.8-22.9c0.3-0.7,0.2-1.9-0.3-3.4c-0.1-0.2-0.1-0.4,0-0.6l1.5-5.2  c0.1-0.2,0.2-0.4,0.4-0.4l7.7-1.9c0.4-0.1,0.4-0.2,0-0.4l-6.2-2.4c-0.2-0.1-0.3-0.3-0.2-0.4l2.2-7.6c0.1-0.2,0.2-0.4,0.5-0.4  c33.7-2.4,67.4-4.2,101.2-5.2c0.3,0,0.4,0.1,0.4,0.4v4.6c0,0.3-0.2,0.5-0.5,0.6l-23.1,4.9c-0.4,0.1-0.4,0.2,0,0.3l4.8,0.9  c0.2,0,0.3,0.2,0.2,0.4l-1.7,3.6c-0.1,0.2-0.2,0.3-0.4,0.3l-53.9,11.1c-0.2,0-0.4,0.2-0.4,0.4l-6.5,19.4c-0.1,0.3,0,0.4,0.3,0.4  l37.6-2.7c0.1,0,0.2,0.1,0.2,0.2c0,0,0,0,0,0.1l-8.3,23.8c-0.1,0.2-0.2,0.4-0.5,0.4L607.6,429.5z"></path>	<path class="st1" d="M572.1,367.6c-0.1-0.2-0.3-0.3-0.7-0.4c-7.8-1-15.2-3.6-21.8-7.8c-0.5-0.3-1.1-0.2-1.4,0.3  c-5.1,6.9-9.6,13.2-13.4,18.7c-16,23.5-32.3,48.6-48.6,74.6l-12.2,2.7c-0.5,0.1-0.8,0.4-1.1,0.8L462.1,476c-0.3,0.5-0.2,0.8,0,1  c0.1,0.2,0.4,0.4,1,0.3l13.6-2.3L464.9,501c-0.2,0.4-0.1,0.7,0,0.9c0.1,0.2,0.3,0.4,0.8,0.5l6.6,0.6c0.5,0,0.8-0.2,1.1-0.6l2.1-3.7  l0.1,3.4c0,0.5,0.3,0.9,0.9,1l11.5,1.8c0.5,0.1,1-0.1,1.2-0.6l18-33.4l25.5-3.6l-2.6,44.2c0,0.5,0.2,0.7,0.3,0.9  c0.1,0.1,0.3,0.2,0.6,0.2c0.1,0,0.2,0,0.3,0c8.4-2,16.9-3.6,25.5-4.8c0.5-0.1,0.9-0.5,0.9-1c0.8-18.9,1.6-38.2,2.5-57.2  c0.2-4.1,0.6-8.3,1.3-12.4c3.5-22.7,7.2-45.8,10.8-68.7C572.4,368.1,572.2,367.8,572.1,367.6z M571.6,368.3  c-3.6,22.9-7.2,45.8-10.8,68.7c-0.7,4.1-1.1,8.3-1.3,12.5c-0.9,19.1-1.7,38.1-2.5,57.2c0,0.2-0.1,0.4-0.4,0.4  c-8.6,1.2-17.1,2.8-25.5,4.8c-0.3,0.1-0.5,0-0.4-0.4l2.6-44.6c0-0.3-0.1-0.4-0.4-0.4l-25.9,3.6c-0.2,0-0.4,0.1-0.5,0.3l-18,33.4  c-0.1,0.2-0.3,0.3-0.5,0.3l-11.5-1.8c-0.2,0-0.3-0.1-0.3-0.3l-0.1-5c0-0.5-0.1-0.5-0.4-0.1l-2.9,5.1c-0.1,0.2-0.2,0.2-0.4,0.2  l-6.6-0.6c-0.3,0-0.4-0.2-0.2-0.4l12.1-26.8c0,0,0,0,0-0.1c0,0,0,0,0,0c0,0,0,0,0,0c0,0,0,0,0,0c0,0,0,0,0,0c0,0-0.1,0-0.1,0  l-14.5,2.5c-0.3,0.1-0.4-0.1-0.2-0.3l10.8-19.5c0.1-0.2,0.3-0.4,0.6-0.4l12.2-2.7c0.2,0,0.4-0.2,0.5-0.3  c16.3-26.1,32.5-50.9,48.6-74.5c3.8-5.6,8.3-11.8,13.4-18.7c0.1-0.2,0.3-0.2,0.5-0.1c6.8,4.3,14.1,6.9,22.1,7.9  C571.6,367.9,571.7,368.1,571.6,368.3z"></path>	<path class="st1" d="M474.5,443.9c1.7-5,1.5-10.3-0.7-14c-1.7-2.9-4.4-4.8-7.9-5.5c-14-2.8-25.9-5.4-35.6-7.6  c-9.5-2.2-17.8-4.7-24.7-7.4c-2.3-0.9-4.9-2.6-6.3-4.1c-1.9-2-3.3-6.6-1.1-9c1.5-1.7,5.3-2,7.5-1.6c20.8,3.7,43.1,7.3,66.4,7.4  c2.2,0,4.6-0.6,6.1-1.7c12.8-8.4,22.1-20,27.6-34.4c0.2-0.4,0-0.8-0.1-0.9c-0.1-0.1-0.3-0.4-0.8-0.3c-30,1.9-60.5,1.1-89.9,0.3  l-4.4-0.1c-11.6-0.3-13.3-0.3-13.6-0.3c-8.9,0.6-16.4,4.3-22.4,11.1c-9,10.1-13.5,24.7-11.3,36.5c1,5.5,4.2,12.9,9.9,17.3  c13.3,10.1,30.3,13.1,46.7,16c3.6,0.6,7.3,1.3,10.9,2c2.2,0.4,4.4,1,6.6,1.8c0,0,0,0,0,0c0.5,1.8-1.3,4.6-2.7,6c-1,1-3,2-5.9,3  c-6.7,2.3-13.5,4.5-20.1,6.7c-8.9,2.9-18.2,5.9-27.2,9.1c-1.9,0.7-4.1,1.1-6.6,1.3c-4.3,0.3-7.7-1.2-9.7-4.3  c-2.8-4.3-2.8-11.5,0-17.1c0.2-0.4,0.1-0.7,0-0.8c-0.1-0.1-0.3-0.4-0.7-0.4c-0.4,0-9.7-0.5-11.1,3.1c-11.6,28.6-19,46.8-21.9,54.2  c-0.7,1.7-0.7,3.4,0.1,4.9c1.5,3,6.3,3.6,10.6,3.6c3.6,0,6.8-0.5,7.1-0.5c12.8-2.1,25.4-6.7,37.6-11.2c6.3-2.3,12.3-4.5,18.2-6.4  c1.8-0.6,3.7-1.1,5.6-1.7c19.3-5.8,41.2-12.4,52.6-30.8C467.7,460.8,471.5,452.8,474.5,443.9z M404.9,499.7  c-17.5,5.4-36.5,14.4-55.8,17.5c-3.8,0.6-14.8,1.6-16.9-2.7c-0.7-1.3-0.7-2.8,0-4.3c3-7.4,10.3-25.5,21.9-54.2  c1-2.6,7.5-2.8,10.5-2.7c0.2,0,0.2,0.1,0.1,0.3c-4.5,8.9-2.7,23.2,10.4,22.3c2.6-0.2,4.8-0.6,6.8-1.3c15.7-5.6,31.5-10.4,47.2-15.8  c3.1-1,5.1-2.1,6.2-3.2c1.4-1.4,3.4-4.4,2.9-6.6c-0.1-0.2-0.2-0.4-0.5-0.5c-2.2-0.8-4.4-1.3-6.6-1.8c-19.7-3.9-41.2-5.6-57.3-17.8  c-5.1-3.9-8.5-10.7-9.6-16.9c-2.3-12.3,3.1-26.8,11.2-35.9c5.9-6.6,13.2-10.2,21.9-10.8c0.4,0,5,0.1,13.5,0.3  c31.5,0.8,62.8,1.7,94.4-0.2c0.2,0,0.3,0.1,0.2,0.3c-5.4,14.3-14.5,25.7-27.3,34.1c-1.5,1-3.7,1.6-5.8,1.6  c-22.5,0-43.8-3.3-66.3-7.3c-2.2-0.4-6.4-0.1-8.2,1.8c-2.4,2.7-1.1,7.6,1.1,9.9c1.5,1.6,4.2,3.3,6.5,4.2c7,2.8,15.2,5.3,24.8,7.5  c9.7,2.2,21.6,4.8,35.6,7.6c9,1.8,10.7,11.2,8.1,18.7c-3.1,8.8-6.8,16.8-11.1,23.8C450.4,487.4,425.8,493.3,404.9,499.7z"></path>	<path class="st1" d="M766.9,379.1c-0.2-0.4-0.6-0.7-1.1-0.7l-17-0.5c0.1-0.1,0.1-0.1,0.1-0.2c0.1-0.2,0.2-0.6-0.2-1l-4.5-6.6  c-0.3-0.4-0.7-0.6-1.2-0.6c-23.3,1.3-46.8,4.1-69.8,8.4c-0.5,0.1-0.9,0.4-1.1,0.9l-8.2,24.1c-0.1,0.3-0.1,0.7-0.1,1  c0.1,0.3,0,0.4,0,0.5c-4,10.2-8,20.4-12.1,30.6l-7.9,2.5c-0.5,0.1-0.7,0.4-0.7,0.6c-0.1,0.2-0.1,0.6,0.2,0.9l5,6.9  c-2.6,9-5.3,18-8.1,27c-3.2,10.6-5.8,21.6-8.4,32.3c-0.5,2-1,4.1-1.4,6.1c-0.1,0.5,0.1,0.8,0.2,0.9c0.1,0.1,0.3,0.2,0.6,0.2  c0.1,0,0.2,0,0.3-0.1c8.9-2.6,17.9-5.1,26.9-7.5c27.7-7.5,56.2-13.4,84.6-17.7c0.4-0.1,0.8-0.3,1-0.6l2.1-3.1  c0.3-0.4,0.3-0.8,0.1-1c-0.1-0.2-0.3-0.5-0.9-0.5l-8,0.3l11.7-2.5c0.5-0.1,0.9-0.5,1-1c0.8-5,0.4-9.9-1.2-14.6  c-0.2-0.5-0.6-0.8-1.2-0.8c-24.8,0.2-50.8,4.4-77.3,12.4c1.9-5.4,4-10.8,6.5-16.1c0.7-1.5,1.6-3,2.7-4.3c0,0,0.1-0.1,0.1-0.1  c19-3.4,38.4-6.4,57.5-8.9c0.5-0.1,0.9-0.4,1.1-0.8l9.3-24.2c0.2-0.5,0.1-0.8-0.1-1c-0.1-0.2-0.4-0.4-0.9-0.4  c-5.5,0.4-11.6,1.1-18.2,2c-17.4,2.4-32,4.5-43.4,6.2c2.4-7.7,5-15.5,7.8-23.2c1.3-3.6,5.1-5.9,8.1-7.3c1.7-0.7,4-1.3,7-1.7  c20.8-2.5,41.7-5.1,62.5-7.6c0.2,0,0.4-0.2,0.6-0.4c0.1-0.2,0.2-0.4,0.2-0.6l0-0.2L766.9,379.1z M770.4,388.1  C770.4,388.1,770.4,388.1,770.4,388.1c-20.9,2.6-41.7,5.1-62.6,7.7c-3.1,0.4-5.5,0.9-7.2,1.7c-3.4,1.5-7.2,4-8.5,7.6  c-2.8,7.9-5.5,15.8-8,23.8c-0.1,0.2,0,0.4,0.3,0.3c11.5-1.7,26.2-3.9,44-6.3c6.6-0.9,12.6-1.6,18.1-2c0.3,0,0.4,0.1,0.3,0.4  l-9.3,24.2c-0.1,0.2-0.3,0.4-0.5,0.4c-19.2,2.5-38.4,5.5-57.5,8.9c-0.2,0-0.4,0.1-0.5,0.3c-1.1,1.4-2,2.9-2.8,4.4  c-2.6,5.6-4.9,11.3-6.8,17.1c0,0.1,0,0.2,0.1,0.2c0,0,0.1,0,0.1,0c25.1-7.7,51.8-12.4,78.1-12.7c0.2,0,0.4,0.1,0.5,0.4  c1.6,4.7,1.9,9.4,1.1,14.3c0,0.2-0.2,0.4-0.4,0.5l-18.2,3.8c-0.1,0-0.1,0.1-0.1,0.1c0,0.1,0.1,0.1,0.1,0.1l14.7-0.6  c0.3,0,0.4,0.1,0.2,0.4l-2.2,3.1c-0.1,0.2-0.3,0.3-0.6,0.4c-28.6,4.3-56.8,10.2-84.7,17.7c-9,2.4-17.9,4.9-26.9,7.5  c-0.3,0.1-0.4,0-0.3-0.3c3.1-12.8,5.9-25.7,9.8-38.3c2.7-9,5.4-18,8.1-27c0.1-0.2,0-0.4-0.1-0.6l-5-6.9c-0.2-0.3-0.1-0.4,0.2-0.5  l7.9-2.5c0.2-0.1,0.4-0.2,0.5-0.4c4-10.2,8.1-20.4,12.1-30.6c0.1-0.2,0.1-0.5,0-0.8c0-0.2,0-0.5,0-0.7l8.2-24.1  c0.1-0.3,0.3-0.4,0.6-0.5c23.1-4.3,46.3-7.1,69.7-8.4c0.3,0,0.5,0.1,0.6,0.3l4.5,6.6c0.2,0.3,0.1,0.5-0.2,0.5l-4.8,0.5  c-1.5,0.2-1.5,0.3,0,0.3l22.6,0.7c0.2,0,0.4,0.1,0.5,0.3l4.2,8.4C770.5,387.9,770.5,388,770.4,388.1z"></path>	<path class="st1" d="M534.6,447.2l3.5-30.6c0,0,0,0,0-0.1c0,0-0.1,0-0.1,0l-22.9,33.6c0,0,0,0.1,0,0.1c0,0,0,0.1,0,0.1  c0,0.1,0.1,0.1,0.2,0.1l18.9-2.9C534.5,447.6,534.6,447.4,534.6,447.2z M516.4,449.6l20.8-30.5l-3.2,27.8L516.4,449.6z"></path>	<path class="st3" d="M603.4,345.7c5.7,0,10.5-2,14.6-5.9c0.2-0.2,0.2-0.4,0-0.6l-5.1-5.3c-0.2-0.2-0.4-0.2-0.6,0  c-1.9,1.5-3.4,2.4-4.5,2.8c-4.1,1.6-9,1-11.9-2.4c-3.8-4.4-2.1-11.9,1.2-16c5.4-6.8,14.5-7.8,20-0.4c0.1,0.2,0.4,0.2,0.6,0.1  l6.6-4.6c0.1-0.1,0.2-0.2,0.1-0.4c-8.1-13.1-26.8-9.3-34.7,1.3C579.9,327.4,585.1,345.8,603.4,345.7z"></path>	<path class="st3" d="M545.9,338.5c5.9,7.2,19,9.4,26.9,4.4c5.3-3.3,7.9-11,4.1-16.1c-1-1.4-2.8-2.7-5.4-4.1  c-2.9-1.5-12.1-3.8-8.3-8.5c0.5-0.6,1.1-1.1,1.7-1.3c4.9-1.6,8.5,0.5,12.3,3.5c0.2,0.2,0.4,0.1,0.6,0l5.4-5.4  c0.2-0.2,0.2-0.4,0-0.5c-2.7-2.7-6-4.5-10-5.2c-8.3-1.5-19.7,1.6-20.2,11.9c-0.5,8.4,7.9,10.6,14,13.5c3.9,1.9,2.4,6.3-1.2,7  c-5.2,0.9-9.5-0.7-13.1-4.8c-0.2-0.2-0.3-0.2-0.5,0L546,338C545.8,338.1,545.8,338.3,545.9,338.5z"></path>	<path class="st3" d="M420,344.7C420,344.7,420,344.7,420,344.7c0,0,0,0.1,0,0.1c0,0,0,0,0.1,0.1c0,0,0,0,0,0c0,0,0.1,0,0.1,0h8.9  c0.1,0,0.1,0,0.2-0.1l5.8-8.6c0-0.1,0.1-0.1,0.2-0.1l16.3,0c0.1,0,0.2,0.1,0.2,0.2l1.2,8.5c0,0.1,0.1,0.2,0.2,0.2l8.5,0h0  c0,0,0,0,0.1,0c0,0,0,0,0.1,0c0,0,0,0,0,0c0,0,0,0,0,0c0,0,0,0,0,0c0,0,0-0.1,0-0.1l-6.2-39.4c0-0.1-0.1-0.2-0.2-0.2l-8.1,0  c-0.1,0-0.1,0-0.2,0.1L420,344.6C420,344.6,420,344.7,420,344.7z M440.6,328.1l8.1-12.2c0,0,0,0,0.1-0.1c0,0,0,0,0.1,0c0,0,0,0,0,0  h0c0,0,0,0,0,0c0,0,0,0,0.1,0c0,0,0,0,0.1,0c0,0,0.1,0.1,0.1,0.1l1.7,12.2c0,0,0,0.1,0,0.1c0,0,0,0,0,0c0,0.1-0.1,0.1-0.1,0.1h0  l-9.8,0h0c0,0,0,0,0,0c0,0,0,0,0,0c0,0,0,0,0,0c0,0,0,0,0,0c0,0,0,0,0,0c0,0,0,0,0,0c0,0,0,0,0,0c0,0,0,0,0-0.1  C440.5,328.2,440.5,328.2,440.6,328.1z"></path>	<path class="st3" d="M507.5,344.9h8.1c0.2,0,0.3-0.1,0.4-0.3l3.2-11.9c0.1-0.3,0.2-0.4,0.5-0.4l5.6,0c0.3,0,0.5,0.1,0.6,0.4l5.7,12  c0.1,0.2,0.3,0.3,0.5,0.3h9.3c0.2,0,0.3-0.1,0.2-0.3l-6.4-12.8c-0.1-0.3-0.1-0.5,0.3-0.5c7.5-1.6,12.8-7.2,12.2-15.2  c-0.5-6.9-6.4-10.3-12.8-10.6c-3.4-0.2-9-0.2-16.7,0c-0.2,0-0.4,0.1-0.4,0.3l-10.4,38.8C507.1,344.8,507.2,344.9,507.5,344.9z   M521.5,324.2l2.8-10.4c0.1-0.2,0.2-0.3,0.4-0.4c4.9-0.3,14.1-1.2,13.9,4.7c-0.3,7.9-11.8,6.7-16.8,6.5  C521.5,324.6,521.4,324.4,521.5,324.2z"></path>	<path class="st3" d="M621.5,344.7C621.5,344.7,621.5,344.7,621.5,344.7c0,0.1,0,0.1,0.1,0.1c0,0,0,0,0.1,0c0,0,0,0,0,0  c0,0,0,0,0.1,0h8.3c0.1,0,0.2-0.1,0.2-0.2l4.2-15.5c0-0.1,0.1-0.2,0.2-0.2h15.3c0,0,0.1,0,0.1,0c0,0,0,0,0.1,0c0,0,0,0,0,0.1  c0,0,0,0.1,0,0.1l-4.1,15.3c0,0,0,0,0,0c0,0,0,0,0,0.1c0,0,0,0.1,0,0.1c0,0,0,0,0.1,0c0,0,0,0,0,0c0,0,0,0,0,0h8.3  c0.1,0,0.2-0.1,0.2-0.2l10.5-39.1c0,0,0,0,0-0.1c0,0,0,0,0-0.1c0,0,0,0,0-0.1c0,0,0,0-0.1,0c0,0,0,0,0,0c0,0,0,0-0.1,0l-8.3,0  c-0.1,0-0.2,0.1-0.2,0.2l-4.1,15.3c0,0.1-0.1,0.2-0.2,0.2h-15.3c0,0-0.1,0-0.1,0c0,0,0,0-0.1,0c0,0,0,0,0-0.1c0,0,0-0.1,0-0.1  l4-15.1c0,0,0,0,0-0.1c0,0,0,0,0-0.1c0,0,0,0,0-0.1c0,0,0,0-0.1,0c0,0,0,0,0,0c0,0,0,0-0.1,0l-8.3,0c-0.1,0-0.2,0.1-0.2,0.2  L621.5,344.7C621.5,344.7,621.5,344.7,621.5,344.7z"></path>	<path class="st3" d="M684.2,345.6c8.1-0.7,14-6.3,16.4-14.5c1.3-4.7,3.6-13.1,6.8-25.3c0.1-0.2,0-0.3-0.3-0.3H699  c-0.2,0-0.3,0.1-0.4,0.3c-1.8,7-3.7,14-5.7,21c-1.5,5.2-3.1,9.2-8.2,10.6c-4,1-6.8,0-8.4-3.2c-1-2-0.8-4.9-0.2-6.9  c1.9-7.1,3.8-14.2,5.7-21.4c0.1-0.3,0-0.4-0.3-0.4h-8c-0.2,0-0.3,0.1-0.4,0.3c-1.6,5.9-3.2,11.7-4.7,17.5c-1.2,4.6-1.8,7.9-1.7,9.8  C667.1,342.7,675.6,346.3,684.2,345.6z"></path>	<path class="st3" d="M704.9,344.7C704.9,344.7,704.9,344.7,704.9,344.7C704.9,344.7,704.9,344.7,704.9,344.7c0,0.1,0,0.1,0,0.1  c0,0,0,0,0,0c0,0,0,0,0,0c0,0,0,0,0,0c0,0,0,0,0,0c0,0,0,0,0,0c0,0,0,0,0.1,0h27.9c0.1,0,0.2-0.1,0.2-0.2l2-7.5c0,0,0,0,0-0.1  c0,0,0,0,0,0c0,0,0,0,0,0c0,0,0,0,0,0c0,0,0,0,0,0c0,0,0,0,0,0c0,0,0,0,0,0c0,0,0,0,0,0c0,0,0,0,0,0c0,0,0,0-0.1,0h-19  c0,0-0.1,0-0.1,0c0,0,0,0,0,0c0,0,0,0,0,0c0,0,0,0,0,0c0,0,0,0,0,0c0,0,0,0,0,0c0,0,0,0,0,0c0,0,0-0.1,0-0.1l8.3-31c0,0,0,0,0-0.1  c0,0,0,0,0,0c0,0,0,0,0,0c0,0,0,0,0,0c0,0,0,0,0,0c0,0,0,0,0,0c0,0,0,0,0,0c0,0,0,0,0,0c0,0,0,0,0,0c0,0,0,0-0.1,0l-8.3,0  c-0.1,0-0.2,0.1-0.2,0.2L704.9,344.7C704.9,344.6,704.9,344.7,704.9,344.7z"></path>	<path class="st1" d="M647.5,424.7l8.3-23.8c0,0,0,0,0-0.1c0-0.1-0.1-0.2-0.2-0.2l-37.6,2.7c-0.3,0-0.4-0.1-0.3-0.4l6.5-19.4  c0.1-0.2,0.2-0.3,0.4-0.4l53.9-11.1c0.2,0,0.3-0.1,0.4-0.3l1.7-3.6c0.1-0.2,0-0.3-0.2-0.4l-4.8-0.9c-0.4-0.1-0.4-0.2,0-0.3  l23.1-4.9c0.3-0.1,0.5-0.3,0.5-0.6v-4.6c0-0.3-0.1-0.4-0.4-0.4c-33.8,1.1-67.5,2.8-101.2,5.2c-0.2,0-0.4,0.1-0.5,0.4l-2.2,7.6  c-0.1,0.2,0,0.4,0.2,0.4l6.2,2.4c0.4,0.2,0.4,0.3,0,0.4l-7.7,1.9c-0.2,0.1-0.4,0.2-0.4,0.4l-1.5,5.2c-0.1,0.2-0.1,0.4,0,0.6  c0.5,1.6,0.6,2.7,0.3,3.4c-2.6,6.4-5.2,14-7.8,22.9c-7.2,25-12,50-14.2,74.8c-0.6,7-1.3,12.5-2.2,18.8c0,0.2,0.1,0.3,0.3,0.3  l8.5-1.8c0.2,0,0.4-0.2,0.4-0.4l2.1-7.1c0.1-0.5,0.3-0.5,0.4,0l1.7,6.2c0.1,0.2,0.2,0.3,0.4,0.3l14.9-3.1c0.2,0,0.3-0.2,0.3-0.4  c2.2-22.9,5.2-38.4,10.3-64.9c0-0.2,0.2-0.3,0.4-0.3l39.4-4.4C647.2,425.1,647.4,424.9,647.5,424.7z"></path>	<path class="st1" d="M571.3,367.9c-8-1-15.3-3.6-22.1-7.9c-0.2-0.1-0.4-0.1-0.5,0.1c-5.1,6.9-9.6,13.1-13.4,18.7  c-16.1,23.6-32.3,48.4-48.6,74.5c-0.1,0.2-0.3,0.3-0.5,0.3l-12.2,2.7c-0.3,0.1-0.5,0.2-0.6,0.4l-10.8,19.5  c-0.1,0.3-0.1,0.4,0.2,0.3l14.5-2.5c0,0,0.1,0,0.1,0c0,0,0,0,0,0c0,0,0,0,0,0c0,0,0,0,0,0c0,0,0,0,0,0c0,0,0,0.1,0,0.1l-12.1,26.8  c-0.1,0.3,0,0.4,0.2,0.4l6.6,0.6c0.2,0,0.3-0.1,0.4-0.2l2.9-5.1c0.3-0.4,0.4-0.4,0.4,0.1l0.1,5c0,0.2,0.1,0.3,0.3,0.3l11.5,1.8  c0.2,0,0.4,0,0.5-0.3l18-33.4c0.1-0.2,0.3-0.3,0.5-0.3l25.9-3.6c0.3,0,0.4,0.1,0.4,0.4l-2.6,44.6c0,0.3,0.1,0.4,0.4,0.4  c8.4-2,16.9-3.6,25.5-4.8c0.2,0,0.3-0.2,0.4-0.4c0.8-19.1,1.6-38.1,2.5-57.2c0.2-4.2,0.6-8.4,1.3-12.5c3.6-22.9,7.2-45.8,10.8-68.7  C571.7,368.1,571.6,367.9,571.3,367.9z M515.4,450.5c-0.1,0-0.2,0-0.2-0.1c0,0,0,0,0-0.1v0c0,0,0-0.1,0-0.1l22.9-33.6  c0,0,0,0,0.1,0c0,0,0,0,0,0.1l-3.5,30.6c0,0.2-0.2,0.3-0.3,0.3L515.4,450.5z"></path>	<path class="st1" d="M465.8,425c-14-2.8-25.9-5.4-35.6-7.6c-9.6-2.2-17.8-4.7-24.8-7.5c-2.3-0.9-5-2.6-6.5-4.2  c-2.2-2.4-3.5-7.2-1.1-9.9c1.7-2,6-2.2,8.2-1.8c22.5,4,43.9,7.3,66.3,7.3c2,0,4.3-0.6,5.8-1.6c12.8-8.4,21.9-19.8,27.3-34.1  c0.1-0.2,0-0.3-0.2-0.3c-31.5,2-62.8,1-94.4,0.2c-8.6-0.2-13.1-0.3-13.5-0.3c-8.7,0.6-16,4.2-21.9,10.8  c-8.1,9.1-13.5,23.6-11.2,35.9c1.1,6.2,4.5,13,9.6,16.9c16.1,12.3,37.6,13.9,57.3,17.8c2.3,0.4,4.5,1,6.6,1.8  c0.2,0.1,0.4,0.3,0.5,0.5c0.6,2.2-1.5,5.3-2.9,6.6c-1.1,1.1-3.1,2.1-6.2,3.2c-15.7,5.4-31.6,10.2-47.2,15.8c-2,0.7-4.2,1.1-6.8,1.3  c-13,0.9-14.9-13.4-10.4-22.3c0.1-0.2,0-0.2-0.1-0.3c-3-0.2-9.4,0.1-10.5,2.7c-11.7,28.7-19,46.8-21.9,54.2c-0.6,1.6-0.6,3,0,4.3  c2.1,4.3,13.1,3.4,16.9,2.7c19.3-3.2,38.3-12.1,55.8-17.5c20.9-6.4,45.4-12.3,57.8-32.2c4.4-7,8.1-14.9,11.1-23.8  C476.4,436.3,474.8,426.8,465.8,425z"></path>	<path class="st1" d="M766.3,379.3c-0.1-0.2-0.3-0.3-0.5-0.3l-22.6-0.7c-1.5,0-1.5-0.2,0-0.3l4.8-0.5c0.4,0,0.4-0.2,0.2-0.5  l-4.5-6.6c-0.1-0.2-0.4-0.3-0.6-0.3c-23.4,1.3-46.7,4.1-69.7,8.4c-0.3,0.1-0.5,0.2-0.6,0.5l-8.2,24.1c-0.1,0.2-0.1,0.5,0,0.7  c0.1,0.3,0.1,0.6,0,0.8c-4,10.2-8,20.4-12.1,30.6c-0.1,0.2-0.2,0.4-0.5,0.4l-7.9,2.5c-0.3,0.1-0.4,0.3-0.2,0.5l5,6.9  c0.1,0.2,0.2,0.4,0.1,0.6c-2.6,9-5.3,18-8.1,27c-3.9,12.6-6.7,25.5-9.8,38.3c-0.1,0.3,0,0.4,0.3,0.3c8.9-2.6,17.9-5.1,26.9-7.5  c27.9-7.5,56.1-13.4,84.7-17.7c0.2,0,0.4-0.2,0.6-0.4l2.2-3.1c0.2-0.3,0.1-0.4-0.2-0.4l-14.7,0.6c-0.1,0-0.1,0-0.1-0.1  c0-0.1,0-0.1,0.1-0.1l18.2-3.8c0.2-0.1,0.4-0.2,0.4-0.5c0.8-4.9,0.4-9.6-1.1-14.3c-0.1-0.2-0.3-0.4-0.5-0.4  c-26.3,0.3-52.9,5-78.1,12.7c0,0-0.1,0-0.1,0c-0.1,0-0.1-0.1-0.1-0.2c1.9-5.8,4.2-11.5,6.8-17.1c0.7-1.6,1.6-3.1,2.8-4.4  c0.1-0.2,0.3-0.3,0.5-0.3c19.1-3.4,38.3-6.4,57.5-8.9c0.3,0,0.4-0.2,0.5-0.4l9.3-24.2c0.1-0.3,0-0.5-0.3-0.4  c-5.5,0.4-11.5,1.1-18.1,2c-17.9,2.5-32.5,4.6-44,6.3c-0.3,0-0.3-0.1-0.3-0.3c2.5-8,5.2-15.9,8-23.8c1.3-3.7,5-6.1,8.5-7.6  c1.7-0.8,4.1-1.3,7.2-1.7c20.8-2.5,41.7-5.1,62.5-7.6c0,0,0,0,0.1,0c0.1-0.1,0.1-0.2,0.1-0.3L766.3,379.3z"></path>	<path class="st1" d="M515.2,450.3C515.2,450.3,515.2,450.4,515.2,450.3C515.2,450.3,515.2,450.3,515.2,450.3L515.2,450.3z"></path>	<path class="st2" d="M190.7,430.4c-1,0-2.8,0-4.3-0.1C187.4,430.4,188.9,430.4,190.7,430.4z"></path>	<polygon class="st2" points="231.9,471.5 231.9,471.5 231.9,471.5  "></polygon>	<path class="st2" d="M143.6,542.8c-0.4,1.8-0.3,2.5-0.1,3.2c0-0.3-0.1-0.5-0.1-0.8C143.4,544.6,143.4,543.8,143.6,542.8z"></path>	<path class="st2" d="M190.7,409.7c-3.9,10.8-7.2,19.9-7.2,20.2c0,0,0,0,0,0l14.3-39.9L190.7,409.7z"></path>	<path class="st2" d="M155.6,507.1c-5.2,15-8.3,23.9-10.1,29.4c6.6-19.1,13.2-38.3,19.8-57.5L155.6,507.1z"></path>	<path class="st2" d="M315.7,383l2.7-1.6c7.4-4.4,14.3-9.9,20.5-16.1c4.4-4.5,7.1-7.6,10.2-12c9.9-14,15.1-29.6,15.5-46.7l0.2-6  l-91.7,0c-76.2,0-92.2,0.1-94.7,0.4c-26.8,3.5-45.6,16.4-57.1,39.2c-4.3,8.5-6.5,16.1-7.7,26.4c-0.4,3.8-0.4,13.5,0.1,17.1  c1.7,12.5,6.4,23.2,14.7,33.5c2.4,2.9,4.6,5.3,4.8,5c0.1-0.1,4.1-10.9,8.9-24.1c9.7-26.3,11.2-29.8,14.7-34.5  c6.7-8.9,15.8-14.8,27.2-17.4c2.6-0.6,2.7-0.6,70.1-0.7c54.3-0.1,67.4,0,67.2,0.3c-1.1,2.7-2.1,5.3-3,7.8h8.6L315.7,383z"></path>	<path class="st2" d="M315.1,394.1l-2.9-1.4l-2,5.4c0,0-1.8,0-2.7,0c-34.6,0-69.3,0-103.9,0c-0.2,0-0.4,0.1-0.5,0.3l-11.6,32  c6.5,0.1,18,0.1,38.4,0.1c42.9,0,46.8,0,46.6,0.5c-0.3,0.7-1.9,3.9-4,7.9c0,0,0,0,0,0l9.7,0.1c0,0-7.1,13.7-10.7,20.5  c-5.6,10.8-14.1,17.4-25.4,19.8c-2.8,0.6-7.3,0.9-13.5,0.9c-19.7,0-39.5,0-59.2,0c-0.2,0-0.4,0.1-0.5,0.3l-24.5,70.9  c0.4,0,0.9,0,1.5,0c2.1-0.1,2.6-0.3,8.1-2.7c16.1-7.1,27.3-10.9,59-20c15.4-4.4,24-7.1,30.2-9.3c14.7-5.1,26.8-11.1,36.1-17.7  c18.6-13.2,30.6-31.5,37.8-57.8c3.7-13.6,5.2-21.3,5.5-28c0.3-6.9-0.7-11-3.3-14.9C321.8,398.2,319.1,396.1,315.1,394.1z"></path>	<path class="st3" d="M203.7,398.1c34.6,0,69.3,0,103.9,0c0.8,0,2.7,0,2.7,0l2-5.4l3.4-9.5l0.1-0.2l11.3-29.3h-8.6h0L304,390  l-106.2,0L183.5,430l-0.1,0.3c0,0,1.4,0,3,0.1c1.5,0,3.3,0.1,4.3,0.1c0.6,0,0.9,0,0.9,0l0,0l11.6-32  C203.3,398.2,203.5,398.1,203.7,398.1z"></path>	<path class="st3" d="M173.7,480c19.7,0,39.5,0,59.2,0c6.2,0,10.7-0.3,13.5-0.9c11.3-2.4,19.7-9,25.4-19.8  c3.6-6.8,10.7-20.5,10.7-20.5l-9.7-0.1c0,0,0,0,0,0c-0.1,0.1-9.3,16.6-13.7,21.8c-4.8,5.9-14.8,10.9-27.1,10.9c0,0,0,0,0,0  c0,0,0,0,0,0c-21.1,0-64.1,0.3-64.1,0.3s-0.1,0.2-0.3,0.7c-0.7,2.1-1.5,4.3-2.2,6.4c-6.6,19.2-13.2,38.4-19.8,57.5  c-0.2,0.5-0.4,1.1-0.6,1.6c-0.7,1.9-1.1,3.5-1.3,4.7c-0.2,1-0.3,1.8-0.2,2.5c0,0.3,0.1,0.5,0.1,0.8c0.5,2.6,2.1,4.5,5,5.6l0.1-0.4  l24.5-70.9C173.3,480.1,173.4,480,173.7,480z"></path></g></svg>